<svg id="Layer_1" data-name="Layer 1" xmlns="http://www.w3.org/2000/svg" viewBox="0 0 120.92 120.92"><defs><style>.cls-1{fill:#ca1e50;}.cls-2{fill:#fff;}</style></defs><circle class="cls-1" cx="60.46" cy="60.46" r="60.46"/><path class="cls-2" d="M309.42,454.12c-8.87.51-16.89-7-26.26-.93V428.92C289.54,441,298.07,449.05,309.42,454.12Z" transform="translate(-262.5 -352.47)"/><path class="cls-2" d="M295.17,370.9c-1.28,2-2.15,3.29-3,4.62-4.31,6.73-3.28,14.31,3.33,18.78,5.63,3.81,11.84,6.76,17.83,10,3.31,1.79,6.85,3.19,10,5.22,10.87,7,13.84,19.18,7.07,30.18-2.54,4.12-6.19,7.56-9.33,11.32l-1.35-1c.79-1.13,1.56-2.27,2.36-3.38,5.31-7.35,4.17-15.45-3.55-20.19-6.39-3.92-13.51-6.66-19.92-10.55-4.56-2.76-9.39-5.87-12.54-10C277.58,394.74,282,377.56,295.17,370.9Z" transform="translate(-262.5 -352.47)"/><path class="cls-2" d="M336.63,457.27c5-3.7,7.32-8.32,7.24-14.27-.11-8.88,1.23-16.95,8.14-22.72H337.57v-.82h26.17c-6.39,4.67-5.09,11.54-5.21,18.09C358.31,449.56,348.27,459,336.63,457.27Z" transform="translate(-262.5 -352.47)"/><path class="cls-2" d="M355.27,369.33v19.16c-4.72-8.2-11.46-14.28-20.62-19C342.09,369.16,348.23,375.88,355.27,369.33Z" transform="translate(-262.5 -352.47)"/><path class="cls-2" d="M303.87,369.16c6.44-.23,12.4,5.35,19.16.42v18.48A37.54,37.54,0,0,0,303.87,369.16Z" transform="translate(-262.5 -352.47)"/></svg>